<svg xmlns="http://www.w3.org/2000/svg" viewBox="0 0 32 32">
  <path
    d="M22.8 6.6C20.5 4.5 17.5 3.5 14 3.5C8.7 3.5 5.2 6.4 5.2 10.6C5.2 14.5 7.8 16.5 13.3 17.9C17.6 19 19.1 19.8 19.1 21.8C19.1 23.5 17.4 24.6 14.6 24.6C11.8 24.6 9.2 23.5 7.3 21.3L4 24.3C6.6 27.3 10.2 29 14.5 29C20.1 29 23.7 26 23.7 21.6C23.7 17.7 21.2 15.7 15.5 14.2C11.4 13.1 9.8 12.3 9.8 10.4C9.8 8.8 11.4 7.8 13.9 7.8C16.3 7.8 18.4 8.7 19.9 10.5Z"
    fill="#121c2a"
  />
  <circle cx="28.2" cy="16" r="2.6" fill="#2457d6" />
</svg>
